<svg xmlns="http://www.w3.org/2000/svg" viewBox="0 0 100 100">
  <defs>
    <linearGradient id="grad" x1="0%" y1="0%" x2="100%" y2="100%">
      <stop offset="0%" style="stop-color:#3B82F6;stop-opacity:1" />
      <stop offset="100%" style="stop-color:#6366F1;stop-opacity:1" />
    </linearGradient>
  </defs>
  <rect width="100" height="100" rx="20" fill="url(#grad)"/>
  <!-- Indian cooking pot -->
  <path d="M30 25 L70 25 L75 35 L70 60 L30 60 L25 35 Z" fill="white" opacity="0.9"/>
  <!-- Pot lid -->
  <ellipse cx="50" cy="25" rx="22" ry="8" fill="white" opacity="0.8"/>
  <!-- Steam lines -->
  <path d="M40 20 Q45 15 50 20 Q55 15 60 20" stroke="white" stroke-width="2" fill="none" opacity="0.6"/>
  <path d="M35 18 Q40 13 45 18 Q50 13 55 18 Q60 13 65 18" stroke="white" stroke-width="1.5" fill="none" opacity="0.4"/>
  <!-- Spices/ingredients -->
  <circle cx="40" cy="45" r="2" fill="white" opacity="0.7"/>
  <circle cx="50" cy="45" r="2" fill="white" opacity="0.7"/>
  <circle cx="60" cy="45" r="2" fill="white" opacity="0.7"/>
  <circle cx="45" cy="50" r="1.5" fill="white" opacity="0.6"/>
  <circle cx="55" cy="50" r="1.5" fill="white" opacity="0.6"/>
</svg>